<svg width="211" height="195" fill="none" xmlns="http://www.w3.org/2000/svg">
    <g class="shadow" filter="url(#filter0_d)">
        <path fill-rule="evenodd" clip-rule="evenodd"
              d="M67.607 52h52.569c6.885 0 14.98 5.024 12.84 15.91-3.35 14.329-7.723 33.402-7.723 33.402-2.047 8.746-10.699 15.724-19.352 15.724H74.585c-.372 0-.744.093-1.023.373l-21.493 15.352c-1.302.93-3.163-.28-2.791-1.861l3.07-13.771c-8.652 0-13.956-7.071-11.909-15.724 0 0 5.21-22.795 7.722-33.588C50.767 57.117 58.954 52 67.608 52z"
              fill="url(#paint0_linear)"></path>
        <path fill-rule="evenodd" clip-rule="evenodd"
              d="M142.785 167H89.193c-6.699 0-13.956-7.071-11.91-15.724l7.723-33.216c2.047-8.746 10.7-15.724 19.353-15.724h31.448c.372 0 .745-.093 1.024-.279l21.585-15.352c1.303-.93 3.071.279 2.699 1.767l-3.164 13.957c8.653 0 13.957 7.071 11.91 15.724l-7.723 33.216c-2.047 8.56-10.7 15.631-19.353 15.631z"
              fill="#00E6A0"></path>
        <mask id="a" maskUnits="userSpaceOnUse" x="40" y="52" width="94" height="84">
            <path fill-rule="evenodd" clip-rule="evenodd"
                  d="M67.607 52h52.569c6.885 0 14.98 5.024 12.84 15.91-3.35 14.329-7.723 33.402-7.723 33.402-2.047 8.746-10.699 15.724-19.352 15.724H74.027l-25.773 18.423 4.094-18.33c-8.652 0-13.956-7.071-11.909-15.724 0 0 5.21-22.795 7.722-33.588C50.767 57.117 58.954 52 67.608 52z"
                  fill="url(#paint1_linear)"></path>
        </mask>
        <g mask="url(#a)">
            <path fill-rule="evenodd" clip-rule="evenodd"
                  d="M67.607 52h52.569c6.885 0 14.98 5.024 12.84 15.91-3.35 14.329-7.723 33.402-7.723 33.402-2.047 8.746-10.699 15.724-19.352 15.724H74.027l-25.773 18.423 4.094-18.33c-8.652 0-13.956-7.071-11.909-15.724 0 0 5.21-22.795 7.722-33.588C50.767 57.117 58.954 52 67.608 52z"
                  fill="url(#paint2_linear)"></path>
            <path d="M77.563 151.555l-.28.093 7.537-33.402c2.047-8.839 10.886-16.003 19.539-16.003H135.9v.465h-31.541c-8.467 0-17.027 6.978-19.074 15.538l-7.722 33.309z"
                  fill="url(#paint3_linear)"></path>
        </g>
        <path fill-rule="evenodd" clip-rule="evenodd"
              d="M142.785 167H89.193c-6.699 0-13.956-7.071-11.91-15.724l7.723-33.216c2.047-8.746 10.7-15.724 19.353-15.724h31.448c.372 0 .745-.093 1.024-.279l21.585-15.352c1.303-.93 3.071.279 2.699 1.767l-3.164 13.957c8.653 0 13.957 7.071 11.91 15.724l-7.723 33.216c-2.047 8.56-10.7 15.631-19.353 15.631z"
              fill="#00E6A0" fill-opacity=".5"></path>
        <path d="M68.724 103.638c-.186 0-.372 0-.558-.093-1.396-.372-2.326-1.768-1.954-3.163l7.071-30.611c.28-1.21 1.303-2.047 2.605-2.047h22.144c3.536 0 5.583 1.489 6.699 2.791 1.396 1.582 2.14 3.722 2.14 6.141 0 6.42-5.024 13.584-12.281 13.584H74.12l-2.605 11.351c-.558 1.21-1.675 2.047-2.791 2.047zm6.42-18.701h19.26c4.373 0 7.071-4.838 7.071-8.28 0-1.117-.279-2.048-.838-2.7-.558-.65-1.488-.93-2.698-.93H77.935l-2.791 11.91zM104.452 151.834c-.465 0-.93-.093-1.302-.279a2.906 2.906 0 0 1-1.489-2.791l3.256-25.122c.186-1.488 1.582-2.605 3.071-2.419 1.488.186 2.605 1.582 2.419 3.071l-2.233 17.864 13.491-12.003c.651-.558 1.489-.837 2.326-.651.837.093 1.582.651 1.954 1.396l6.885 12.188 9.304-20.097c.652-1.396 2.326-1.954 3.722-1.302 1.396.651 1.954 2.326 1.302 3.721l-11.63 25.029c-.465.93-1.395 1.581-2.419 1.581-1.023 0-2.047-.465-2.512-1.395l-7.816-13.957-16.468 14.608c-.558.279-1.21.558-1.861.558z"
              fill="#fff"></path>
    </g>
    <defs>
        <filter id="filter0_d" x="0" y="0" width="210.3" height="195" filterUnits="userSpaceOnUse"
                color-interpolation-filters="sRGB">
            <feFlood flood-opacity="0" result="BackgroundImageFix"></feFlood>
            <feColorMatrix in="SourceAlpha" values="0 0 0 0 0 0 0 0 0 0 0 0 0 0 0 0 0 0 127 0"></feColorMatrix>
            <feOffset dy="-12"></feOffset>
            <feGaussianBlur stdDeviation="20"></feGaussianBlur>
            <feColorMatrix values="0 0 0 0 0.0156863 0 0 0 0 0.643137 0 0 0 0 0.670588 0 0 0 1 0"></feColorMatrix>
            <feBlend in2="BackgroundImageFix" result="effect1_dropShadow"></feBlend>
            <feBlend in="SourceGraphic" in2="effect1_dropShadow" result="shape"></feBlend>
        </filter>
        <linearGradient id="paint0_linear" x1="87.932" y1="50.403" x2="85.243" y2="128.427"
                        gradientUnits="userSpaceOnUse">
            <stop stop-color="#0059BE"></stop>
            <stop offset="1" stop-color="#2D87D1"></stop>
        </linearGradient>
        <linearGradient id="paint1_linear" x1="87.933" y1="50.388" x2="85.162" y2="130.726"
                        gradientUnits="userSpaceOnUse">
            <stop></stop>
            <stop offset="1" stop-color="gray"></stop>
        </linearGradient>
        <linearGradient id="paint2_linear" x1="87.933" y1="50.388" x2="85.162" y2="130.726"
                        gradientUnits="userSpaceOnUse">
            <stop stop-color="#0059BE"></stop>
            <stop offset="1" stop-color="#2D87D1"></stop>
        </linearGradient>
        <linearGradient id="paint3_linear" x1="108.165" y1="100.63" x2="105.113" y2="153.185"
                        gradientUnits="userSpaceOnUse">
            <stop stop-color="#00E4A1"></stop>
            <stop offset="1" stop-color="#00E4A1"></stop>
        </linearGradient>
    </defs>
</svg>